<?xml version="1.0" encoding="utf-8"?>
<!-- Generator: Adobe Illustrator 21.1.0, SVG Export Plug-In . SVG Version: 6.00 Build 0)  -->
<svg version="1.1" id="Слой_1" xmlns="http://www.w3.org/2000/svg" xmlns:xlink="http://www.w3.org/1999/xlink" x="0px" y="0px"
	 viewBox="0 0 483.458 124.44" style="enable-background:new 0 0 483.458 124.44;" xml:space="preserve">
<g>
	<g style="enable-background:new    ;">
		<path style="fill:#333333;" d="M152.571,111.911c0-3.744,2.664-6.36,6.336-6.36c1.992,0,3.72,0.768,4.752,2.304l-0.888,0.648
			c-0.912-1.272-2.304-1.872-3.864-1.872c-2.952,0-5.112,2.112-5.112,5.28s2.16,5.28,5.112,5.28c1.56,0,2.952-0.6,3.864-1.872
			l0.888,0.648c-1.032,1.512-2.76,2.304-4.752,2.304C155.235,118.272,152.571,115.632,152.571,111.911z"/>
		<path style="fill:#333333;" d="M175.3,106.727h-4.896v11.449h-1.2v-11.449h-4.896v-1.08H175.3V106.727z"/>
		<path style="fill:#333333;" d="M186.844,110.232v7.944h-1.152v-2.232c-0.792,1.44-2.328,2.328-4.513,2.328
			c-2.808,0-4.512-1.439-4.512-3.576c0-1.896,1.2-3.504,4.681-3.504h4.296v-1.009c0-2.328-1.272-3.576-3.72-3.576
			c-1.728,0-3.288,0.648-4.32,1.585l-0.6-0.864c1.248-1.104,3.072-1.776,5.017-1.776
			C185.116,105.551,186.844,107.135,186.844,110.232z M185.644,114.48v-2.353h-4.272c-2.592,0-3.504,1.08-3.504,2.521
			c0,1.632,1.272,2.641,3.48,2.641C183.459,117.288,184.924,116.28,185.644,114.48z"/>
		<path style="fill:#333333;" d="M191.715,105.647h1.2v5.713h8.497v-5.713h1.2v12.529h-1.2v-5.761h-8.497v5.761h-1.2V105.647z"/>
		<path style="fill:#333333;" d="M217.588,114.144c0,2.664-1.776,4.104-5.064,4.08l-4.729-0.048v-12.529h1.2v4.513l3.816,0.048
			C215.932,110.232,217.588,111.6,217.588,114.144z M216.364,114.144c0-2.04-1.296-2.977-3.865-3.024l-3.504-0.024v6.121
			l3.504,0.048C215.043,117.312,216.364,116.208,216.364,114.144z"/>
		<path style="fill:#333333;" d="M231.483,112.368h-3.048v5.809h-1.2v-12.529h1.2v5.688h3.048l4.728-5.688h1.32l-5.088,6.072
			l5.472,6.457h-1.44L231.483,112.368z"/>
		<path style="fill:#333333;" d="M240.866,105.647h1.2v10.681l8.929-10.681h1.057v12.529h-1.2v-10.681l-8.929,10.681h-1.056V105.647
			z"/>
		<path style="fill:#333333;" d="M265.61,106.727h-4.896v11.449h-1.2v-11.449h-4.896v-1.08h10.992V106.727z"/>
		<path style="fill:#333333;" d="M266.33,111.911c0-3.72,2.664-6.36,6.265-6.36s6.265,2.641,6.265,6.36
			c0,3.721-2.664,6.36-6.265,6.36S266.33,115.632,266.33,111.911z M277.635,111.911c0-3.145-2.16-5.28-5.04-5.28
			s-5.04,2.136-5.04,5.28s2.16,5.28,5.04,5.28S277.635,115.056,277.635,111.911z"/>
		<path style="fill:#333333;" d="M296.403,105.647v12.529h-1.104v-10.609l-5.448,9.001h-0.552l-5.425-8.977v10.585h-1.104v-12.529
			h1.176l5.664,9.481l5.688-9.481H296.403z"/>
		<path style="fill:#333333;" d="M317.931,114.816c0,2.16-1.536,3.36-4.753,3.36h-5.424v-12.529h5.28
			c2.76,0,4.464,1.104,4.464,3.192c0,1.488-0.888,2.473-2.328,2.88C317.066,112.056,317.931,113.112,317.931,114.816z
			 M308.93,111.36h4.032c2.137,0,3.336-0.816,3.336-2.376c0-1.585-1.199-2.353-3.336-2.353h-4.032V111.36z M316.73,114.768
			c0-1.704-1.032-2.473-3.385-2.473h-4.416v4.896h4.225C315.482,117.192,316.73,116.448,316.73,114.768z"/>
		<path style="fill:#333333;" d="M342.003,105.647v12.529h-1.104v-10.609l-5.448,9.001h-0.553l-5.424-8.977v10.585h-1.104v-12.529
			h1.177l5.664,9.481l5.688-9.481H342.003z"/>
		<path style="fill:#333333;" d="M345.913,111.911c0-3.72,2.664-6.36,6.265-6.36s6.265,2.641,6.265,6.36
			c0,3.721-2.664,6.36-6.265,6.36S345.913,115.632,345.913,111.911z M357.218,111.911c0-3.145-2.16-5.28-5.04-5.28
			s-5.04,2.136-5.04,5.28s2.16,5.28,5.04,5.28S357.218,115.056,357.218,111.911z"/>
		<path style="fill:#333333;" d="M374.858,111.911c0,3.769-2.664,6.36-6.192,6.36c-2.208,0-4.081-1.08-5.089-2.952v7.513h-1.2
			v-17.186h1.152v2.952c0.984-1.92,2.88-3.048,5.137-3.048C372.194,105.551,374.858,108.167,374.858,111.911z M373.658,111.911
			c0-3.145-2.185-5.28-5.064-5.28s-5.04,2.136-5.04,5.28s2.16,5.28,5.04,5.28S373.658,115.056,373.658,111.911z"/>
		<path style="fill:#333333;" d="M389.449,112.2h-10.776c0.12,2.977,2.304,4.992,5.305,4.992c1.584,0,3.048-0.576,4.008-1.752
			l0.696,0.792c-1.104,1.345-2.832,2.04-4.729,2.04c-3.792,0-6.456-2.64-6.456-6.36c0-3.72,2.567-6.36,6-6.36
			s5.977,2.592,5.977,6.312C389.474,111.959,389.449,112.079,389.449,112.2z M378.696,111.264h9.602
			c-0.168-2.713-2.137-4.657-4.801-4.657S378.889,108.528,378.696,111.264z"/>
		<path style="fill:#333333;" d="M398.28,111.911c0-3.744,2.664-6.36,6.337-6.36c1.992,0,3.72,0.768,4.752,2.304l-0.888,0.648
			c-0.912-1.272-2.305-1.872-3.864-1.872c-2.952,0-5.112,2.112-5.112,5.28s2.16,5.28,5.112,5.28c1.56,0,2.952-0.6,3.864-1.872
			l0.888,0.648c-1.032,1.512-2.76,2.304-4.752,2.304C400.944,118.272,398.28,115.632,398.28,111.911z"/>
		<path style="fill:#333333;" d="M421.009,106.727h-4.896v11.449h-1.2v-11.449h-4.896v-1.08h10.992V106.727z"/>
		<path style="fill:#333333;" d="M423.576,105.647h1.2v10.681l8.929-10.681h1.056v12.529h-1.2v-10.681l-8.929,10.681h-1.056V105.647
			z"/>
		<path style="fill:#333333;" d="M447.793,118.176l-4.297-5.593l-4.296,5.593h-1.368l4.968-6.457l-4.704-6.072h1.368l4.032,5.209
			l4.032-5.209h1.345l-4.705,6.072l5.041,6.457H447.793z"/>
		<path style="fill:#333333;" d="M450.527,111.911c0-3.72,2.664-6.36,6.265-6.36c3.6,0,6.265,2.641,6.265,6.36
			c0,3.721-2.665,6.36-6.265,6.36C453.191,118.272,450.527,115.632,450.527,111.911z M461.832,111.911c0-3.145-2.16-5.28-5.04-5.28
			c-2.881,0-5.041,2.136-5.041,5.28s2.16,5.28,5.041,5.28C459.672,117.192,461.832,115.056,461.832,111.911z"/>
		<path style="fill:#333333;" d="M477.145,114.816c0,2.16-1.536,3.36-4.753,3.36h-5.425v-12.529h5.281
			c2.76,0,4.464,1.104,4.464,3.192c0,1.488-0.888,2.473-2.328,2.88C476.28,112.056,477.145,113.112,477.145,114.816z
			 M468.144,111.36h4.032c2.136,0,3.336-0.816,3.336-2.376c0-1.585-1.2-2.353-3.336-2.353h-4.032V111.36z M475.944,114.768
			c0-1.704-1.032-2.473-3.385-2.473h-4.416v4.896h4.225C474.696,117.192,475.944,116.448,475.944,114.768z"/>
	</g>
	<g style="enable-background:new    ;">
		<path style="fill:#333333;" d="M183.319,17.208c-7.384,0-15.289,3.849-15.289,12.48c0,9.048,7.488,13.937,14.769,18.409
			c7.696,4.992,16.433,9.984,16.641,20.904c0.208,14.041-11.128,22.777-26.209,22.777c-9.36,0-18.305-2.601-20.801-4.473
			l2.08-14.248h4.992l0.624,10.607c2.808,1.977,8.32,3.225,13.312,3.225c8.112,0,17.369-4.264,17.785-14.041
			c0.312-8.736-6.448-13.312-13.417-17.576c-7.904-4.992-17.681-11.024-17.889-22.465c-0.208-12.272,11.024-20.488,24.129-20.488
			c9.776,0,15.913,2.496,18.617,4.367L200.375,30h-4.576l-0.52-9.88C193.095,18.561,188.831,17.208,183.319,17.208z"/>
		<path style="fill:#333333;" d="M221.485,80.859c0,3.64,1.144,4.888,4.992,4.888c3.12,0,8.32-2.808,10.296-4.367l0.832,3.224
			c-2.288,2.704-9.464,7.072-15.497,7.072c-5.616,0-8.944-2.601-8.944-8.528c0-0.729-0.104-1.872,0.52-6.553l4.888-37.961h-6.344
			l0.936-3.641l6.344-1.976c1.872-2.392,4.472-9.984,5.824-14.249h4.056l-1.872,14.145h14.353l-0.832,5.721h-14.145l-4.68,34.426
			C221.797,76.594,221.485,79.195,221.485,80.859z"/>
		<path style="fill:#333333;" d="M260.797,86.059c1.456,0,3.017-0.936,5.408-3.432l1.353,2.287
			c-0.937,1.457-5.305,6.761-11.024,6.761c-3.536,0-6.137-1.664-5.824-6.136c0.624-6.553,4.472-30.682,6.552-46.074l-6.76-2.184
			l0.624-3.328l13.208-2.185l2.08,1.04l-7.072,49.609C258.925,84.914,259.757,86.059,260.797,86.059z M258.821,14.504
			c0.104-3.641,3.224-6.448,6.032-6.448c3.016,0,4.784,2.08,4.784,4.888c0,3.744-2.809,6.761-6.137,6.761
			C260.901,19.704,258.717,17.52,258.821,14.504z"/>
		<path style="fill:#333333;" d="M317.166,31.561c7.176,0,11.648,3.744,11.648,15.08c0,4.889-1.664,12.689-2.704,18.305
			c-0.937,5.201-2.393,12.377-2.809,17.577c-0.104,2.392,0.521,3.64,1.561,3.64c1.56,0,2.912-1.039,5.408-3.119l1.248,2.287
			c-0.729,1.353-5.2,6.345-11.024,6.345c-3.744,0-5.929-1.769-5.721-6.136c0.208-4.576,1.872-12.377,2.809-18.098
			c1.144-5.824,2.808-13.936,2.808-20.28c0-6.864-2.184-8.944-6.76-8.944c-6.345,0-14.977,6.864-20.073,14.769l-5.096,37.649h-7.904
			l10.088-76.859l-5.824-1.664l0.624-3.535l11.961-1.769l2.08,1.248l-5.097,38.273C299.901,38.53,308.43,31.561,317.166,31.561z"/>
		<path style="fill:#333333;" d="M356.164,86.059c1.456,0,3.017-0.936,5.408-3.432l1.353,2.287
			c-0.937,1.457-5.305,6.761-11.024,6.761c-3.536,0-6.137-1.664-5.824-6.136c0.624-6.553,4.472-30.682,6.552-46.074l-6.76-2.184
			l0.624-3.328l13.208-2.185l2.08,1.04l-7.072,49.609C354.292,84.914,355.124,86.059,356.164,86.059z M354.188,14.504
			c0.104-3.641,3.224-6.448,6.032-6.448c3.016,0,4.784,2.08,4.784,4.888c0,3.744-2.809,6.761-6.137,6.761
			C356.269,19.704,354.084,17.52,354.188,14.504z"/>
	</g>
	<g style="enable-background:new    ;">
		<path style="fill:#33A8B9;" d="M378.836,79.506c3.744,0,5.2,2.393,4.784,5.617c-0.624,4.056-3.64,6.447-6.76,6.447
			c-2.912,0-4.889-1.976-4.473-5.615C372.908,82.211,375.716,79.506,378.836,79.506z"/>
	</g>
	<g style="enable-background:new    ;">
		<path style="fill:#333333;" d="M411.595,86.059c1.456,0,3.016-0.936,5.408-3.432l1.352,2.287
			c-0.936,1.457-5.304,6.761-11.024,6.761c-3.536,0-6.136-1.664-5.824-6.136c0.624-6.553,4.473-30.682,6.553-46.074l-6.761-2.184
			l0.624-3.328l13.209-2.185l2.08,1.04l-7.072,49.609C409.723,84.914,410.555,86.059,411.595,86.059z M409.618,14.504
			c0.104-3.641,3.225-6.448,6.032-6.448c3.017,0,4.784,2.08,4.784,4.888c0,3.744-2.808,6.761-6.136,6.761
			C411.698,19.704,409.515,17.52,409.618,14.504z"/>
		<path style="fill:#333333;" d="M478.987,54.961c0.312,18.305-11.544,36.714-28.913,36.714c-12.896,0-20.072-8.528-20.385-23.297
			c-0.104-18.616,11.753-36.817,29.121-36.817C471.707,31.561,478.779,40.194,478.987,54.961z M438.322,68.274
			c0.104,11.753,4.784,18.305,13.312,18.305c12.584,0,19.032-17.784,18.721-31.513c-0.104-11.648-4.368-18.409-13.001-18.409
			C444.458,36.657,438.114,54.442,438.322,68.274z"/>
	</g>
</g>
<g>
	<path style="fill:none;stroke:#33A8B9;stroke-width:3;stroke-linecap:round;stroke-linejoin:round;stroke-miterlimit:10;" d="
		M75.754,114.696"/>
	<path style="fill:none;stroke:#33A8B9;stroke-width:3;stroke-linecap:round;stroke-linejoin:round;stroke-miterlimit:10;" d="
		M75.754,114.696c0.47,0.01,0.942,0.015,1.415,0.015c31.755,0,58.246-22.615,64.298-52.66c0.207-1.026-0.575-1.986-1.619-1.986
		H47.532c-6.52-1.675-11.028-4.926-14.062-8.712c-3.029-3.786-5.19-6.038-5.19-12.284c0-0.006,0,0.02-0.006,0.014l-16.707-0.014
		c0,3.812,0,6.636,0,9.881c0,30.465,20.668,56.092,48.713,63.561"/>
	<path style="fill:none;stroke:#33A8B9;stroke-width:3;stroke-linecap:round;stroke-linejoin:round;stroke-miterlimit:10;" d="
		M20.283,17.634c0,0-1.367-13.02-17.06-13.912C2.285,3.669,1.5,4.434,1.5,5.375v22.362c0,0,1.131,11.331,14.293,11.331"/>
	<path style="fill:none;stroke:#33A8B9;stroke-width:3;stroke-linecap:round;stroke-linejoin:round;stroke-miterlimit:10;" d="
		M20.283,17.634c0,0,1.367-13.02,17.06-13.912c0.938-0.053,1.723,0.711,1.723,1.652v22.281c0,0.061-0.004,0.118-0.012,0.178
		c-0.141,1.061-1.707,10.46-12.878,11.189"/>
	<path style="fill:none;stroke:#33A8B9;stroke-width:3;stroke-linecap:round;stroke-linejoin:round;stroke-miterlimit:10;" d="
		M79.644,86.147v16.736c0,3.906-1.168,7.759-3.513,10.879c-2.502,3.328-6.729,6.508-13.815,6.956
		c-0.94,0.059-1.729-0.708-1.729-1.652V98.637c0,0-1.649-12.307,12.278-12.307"/>
	<path style="fill:none;stroke:#000000;stroke-width:3;stroke-linecap:round;stroke-linejoin:round;stroke-miterlimit:10;" d="
		M25.208,59.376"/>
	
		<line style="fill:none;stroke:#33A8B9;stroke-width:3;stroke-linecap:round;stroke-linejoin:round;stroke-miterlimit:10;" x1="47.532" y1="60.064" x2="35.276" y2="60.064"/>
	<path style="fill:none;stroke:#33A8B9;stroke-width:2;stroke-linecap:round;stroke-linejoin:round;stroke-miterlimit:10;" d="
		M61.54,92.403c0,0-13.964-0.654-23.493-6.256"/>
	<path style="fill:none;stroke:#33A8B9;stroke-width:2;stroke-linecap:round;stroke-linejoin:round;stroke-miterlimit:10;" d="
		M87.667,83.896c0,0,1.245,6.364,10.956,8.611h22.41c0,0,4.882-0.482,6.625-1.563"/>
	<path style="fill:none;stroke:#33A8B9;stroke-width:2;stroke-linecap:round;stroke-linejoin:round;stroke-miterlimit:10;" d="
		M115.267,80.905c0,0-4.306-4.316-7.605,0"/>
</g>
</svg>
