<?xml version="1.0" encoding="utf-8"?>
<!-- Generator: Adobe Illustrator 21.1.0, SVG Export Plug-In . SVG Version: 6.00 Build 0)  -->
<svg version="1.1" id="Слой_1" xmlns="http://www.w3.org/2000/svg" xmlns:xlink="http://www.w3.org/1999/xlink" x="0px" y="0px"
	 viewBox="0 0 143 120.002" style="enable-background:new 0 0 143 120.002;" xml:space="preserve">
<g>
	<path style="fill:none;stroke:#33A8B9;stroke-width:3;stroke-linecap:round;stroke-linejoin:round;stroke-miterlimit:10;" d="
		M75.754,112.477"/>
	<path style="fill:none;stroke:#33A8B9;stroke-width:3;stroke-linecap:round;stroke-linejoin:round;stroke-miterlimit:10;" d="
		M75.754,112.477c0.47,0.01,0.942,0.015,1.415,0.015c31.755,0,58.246-22.615,64.298-52.66c0.207-1.026-0.575-1.986-1.619-1.986
		H47.532c-6.52-1.675-11.028-4.926-14.062-8.712c-3.029-3.786-5.19-6.038-5.19-12.284c0-0.006,0,0.02-0.006,0.014L11.567,36.85
		c0,3.812,0,6.636,0,9.881c0,30.465,20.668,56.092,48.713,63.561"/>
	<path style="fill:none;stroke:#33A8B9;stroke-width:3;stroke-linecap:round;stroke-linejoin:round;stroke-miterlimit:10;" d="
		M20.283,15.415c0,0-1.367-13.02-17.06-13.912C2.285,1.45,1.5,2.215,1.5,3.156v22.362c0,0,1.131,11.331,14.293,11.331"/>
	<path style="fill:none;stroke:#33A8B9;stroke-width:3;stroke-linecap:round;stroke-linejoin:round;stroke-miterlimit:10;" d="
		M20.283,15.415c0,0,1.367-13.02,17.06-13.912c0.938-0.053,1.723,0.711,1.723,1.652v22.281c0,0.061-0.004,0.118-0.012,0.178
		c-0.141,1.061-1.707,10.46-12.878,11.189"/>
	<path style="fill:none;stroke:#33A8B9;stroke-width:3;stroke-linecap:round;stroke-linejoin:round;stroke-miterlimit:10;" d="
		M79.644,83.928v16.736c0,3.906-1.168,7.759-3.513,10.879c-2.502,3.328-6.729,6.508-13.815,6.956
		c-0.94,0.059-1.729-0.708-1.729-1.652V96.418c0,0-1.649-12.307,12.278-12.307"/>
	<path style="fill:none;stroke:#000000;stroke-width:3;stroke-linecap:round;stroke-linejoin:round;stroke-miterlimit:10;" d="
		M25.208,57.157"/>
	
		<line style="fill:none;stroke:#33A8B9;stroke-width:3;stroke-linecap:round;stroke-linejoin:round;stroke-miterlimit:10;" x1="47.532" y1="57.845" x2="35.276" y2="57.845"/>
	<path style="fill:none;stroke:#33A8B9;stroke-width:2;stroke-linecap:round;stroke-linejoin:round;stroke-miterlimit:10;" d="
		M61.54,90.184c0,0-13.964-0.654-23.493-6.256"/>
	<path style="fill:none;stroke:#33A8B9;stroke-width:2;stroke-linecap:round;stroke-linejoin:round;stroke-miterlimit:10;" d="
		M87.667,81.677c0,0,1.245,6.364,10.956,8.611h22.41c0,0,4.882-0.482,6.625-1.563"/>
	<path style="fill:none;stroke:#33A8B9;stroke-width:2;stroke-linecap:round;stroke-linejoin:round;stroke-miterlimit:10;" d="
		M115.267,78.686c0,0-4.306-4.316-7.605,0"/>
</g>
</svg>
