<?xml version="1.0" encoding="UTF-8" standalone="no"?>
<!-- Generator: Adobe Illustrator 21.1.0, SVG Export Plug-In . SVG Version: 6.00 Build 0)  -->

<svg
   xmlns:dc="http://purl.org/dc/elements/1.1/"
   xmlns:cc="http://creativecommons.org/ns#"
   xmlns:rdf="http://www.w3.org/1999/02/22-rdf-syntax-ns#"
   xmlns:svg="http://www.w3.org/2000/svg"
   xmlns="http://www.w3.org/2000/svg"
   xmlns:sodipodi="http://sodipodi.sourceforge.net/DTD/sodipodi-0.dtd"
   xmlns:inkscape="http://www.inkscape.org/namespaces/inkscape"
   version="1.1"
   id="Слой_1"
   x="0px"
   y="0px"
   viewBox="0 0 483.458 124.44"
   xml:space="preserve"
   sodipodi:docname="logo-beta.svg"
   width="483.45801"
   height="124.44"
   inkscape:export-filename="/home/misha/staff/projects/stihi/doc/design/logo/logo-beta.svg.png"
   inkscape:export-xdpi="96"
   inkscape:export-ydpi="96"
   inkscape:version="0.92.3 (2405546, 2018-03-11)"><metadata
   id="metadata97"><rdf:RDF><cc:Work
       rdf:about=""><dc:format>image/svg+xml</dc:format><dc:type
         rdf:resource="http://purl.org/dc/dcmitype/StillImage" /><dc:title></dc:title></cc:Work></rdf:RDF></metadata><defs
   id="defs95">
	
	
	
	
</defs><sodipodi:namedview
   pagecolor="#ffffff"
   bordercolor="#666666"
   borderopacity="1"
   objecttolerance="10"
   gridtolerance="10"
   guidetolerance="10"
   inkscape:pageopacity="0"
   inkscape:pageshadow="2"
   inkscape:window-width="1700"
   inkscape:window-height="983"
   id="namedview93"
   showgrid="false"
   inkscape:showpageshadow="false"
   inkscape:zoom="1.5219183"
   inkscape:cx="337.09723"
   inkscape:cy="62.220001"
   inkscape:window-x="0"
   inkscape:window-y="72"
   inkscape:window-maximized="0"
   inkscape:current-layer="Слой_1" />
<g
   id="g3905"
   transform="translate(0,-2.4414063e-6)"><g
     style="enable-background:new"
     id="g44">
		<path
   style="fill:#333333"
   d="m 152.571,111.911 c 0,-3.744 2.664,-6.36 6.336,-6.36 1.992,0 3.72,0.768 4.752,2.304 l -0.888,0.648 c -0.912,-1.272 -2.304,-1.872 -3.864,-1.872 -2.952,0 -5.112,2.112 -5.112,5.28 0,3.168 2.16,5.28 5.112,5.28 1.56,0 2.952,-0.6 3.864,-1.872 l 0.888,0.648 c -1.032,1.512 -2.76,2.304 -4.752,2.304 -3.672,0.001 -6.336,-2.639 -6.336,-6.36 z"
   id="path2"
   inkscape:connector-curvature="0" />
		<path
   style="fill:#333333"
   d="m 175.3,106.727 h -4.896 v 11.449 h -1.2 v -11.449 h -4.896 v -1.08 H 175.3 Z"
   id="path4"
   inkscape:connector-curvature="0" />
		<path
   style="fill:#333333"
   d="m 186.844,110.232 v 7.944 h -1.152 v -2.232 c -0.792,1.44 -2.328,2.328 -4.513,2.328 -2.808,0 -4.512,-1.439 -4.512,-3.576 0,-1.896 1.2,-3.504 4.681,-3.504 h 4.296 v -1.009 c 0,-2.328 -1.272,-3.576 -3.72,-3.576 -1.728,0 -3.288,0.648 -4.32,1.585 l -0.6,-0.864 c 1.248,-1.104 3.072,-1.776 5.017,-1.776 3.095,-0.001 4.823,1.583 4.823,4.68 z m -1.2,4.248 v -2.353 h -4.272 c -2.592,0 -3.504,1.08 -3.504,2.521 0,1.632 1.272,2.641 3.48,2.641 2.111,-0.001 3.576,-1.009 4.296,-2.809 z"
   id="path6"
   inkscape:connector-curvature="0" />
		<path
   style="fill:#333333"
   d="m 191.715,105.647 h 1.2 v 5.713 h 8.497 v -5.713 h 1.2 v 12.529 h -1.2 v -5.761 h -8.497 v 5.761 h -1.2 z"
   id="path8"
   inkscape:connector-curvature="0" />
		<path
   style="fill:#333333"
   d="m 217.588,114.144 c 0,2.664 -1.776,4.104 -5.064,4.08 l -4.729,-0.048 v -12.529 h 1.2 v 4.513 l 3.816,0.048 c 3.121,0.024 4.777,1.392 4.777,3.936 z m -1.224,0 c 0,-2.04 -1.296,-2.977 -3.865,-3.024 l -3.504,-0.024 v 6.121 l 3.504,0.048 c 2.544,0.047 3.865,-1.057 3.865,-3.121 z"
   id="path10"
   inkscape:connector-curvature="0" />
		<path
   style="fill:#333333"
   d="m 231.483,112.368 h -3.048 v 5.809 h -1.2 v -12.529 h 1.2 v 5.688 h 3.048 l 4.728,-5.688 h 1.32 l -5.088,6.072 5.472,6.457 h -1.44 z"
   id="path12"
   inkscape:connector-curvature="0" />
		<path
   style="fill:#333333"
   d="m 240.866,105.647 h 1.2 v 10.681 l 8.929,-10.681 h 1.057 v 12.529 h -1.2 v -10.681 l -8.929,10.681 h -1.056 v -12.529 z"
   id="path14"
   inkscape:connector-curvature="0" />
		<path
   style="fill:#333333"
   d="m 265.61,106.727 h -4.896 v 11.449 h -1.2 v -11.449 h -4.896 v -1.08 h 10.992 z"
   id="path16"
   inkscape:connector-curvature="0" />
		<path
   style="fill:#333333"
   d="m 266.33,111.911 c 0,-3.72 2.664,-6.36 6.265,-6.36 3.601,0 6.265,2.641 6.265,6.36 0,3.721 -2.664,6.36 -6.265,6.36 -3.601,0 -6.265,-2.639 -6.265,-6.36 z m 11.305,0 c 0,-3.145 -2.16,-5.28 -5.04,-5.28 -2.88,0 -5.04,2.136 -5.04,5.28 0,3.144 2.16,5.28 5.04,5.28 2.88,0 5.04,-2.135 5.04,-5.28 z"
   id="path18"
   inkscape:connector-curvature="0" />
		<path
   style="fill:#333333"
   d="m 296.403,105.647 v 12.529 h -1.104 v -10.609 l -5.448,9.001 h -0.552 l -5.425,-8.977 v 10.585 h -1.104 v -12.529 h 1.176 l 5.664,9.481 5.688,-9.481 z"
   id="path20"
   inkscape:connector-curvature="0" />
		<path
   style="fill:#333333"
   d="m 317.931,114.816 c 0,2.16 -1.536,3.36 -4.753,3.36 h -5.424 v -12.529 h 5.28 c 2.76,0 4.464,1.104 4.464,3.192 0,1.488 -0.888,2.473 -2.328,2.88 1.896,0.337 2.761,1.393 2.761,3.097 z m -9.001,-3.456 h 4.032 c 2.137,0 3.336,-0.816 3.336,-2.376 0,-1.585 -1.199,-2.353 -3.336,-2.353 h -4.032 z m 7.8,3.408 c 0,-1.704 -1.032,-2.473 -3.385,-2.473 h -4.416 v 4.896 h 4.225 c 2.328,10e-4 3.576,-0.743 3.576,-2.423 z"
   id="path22"
   inkscape:connector-curvature="0" />
		<path
   style="fill:#333333"
   d="m 342.003,105.647 v 12.529 h -1.104 v -10.609 l -5.448,9.001 h -0.553 l -5.424,-8.977 v 10.585 h -1.104 v -12.529 h 1.177 l 5.664,9.481 5.688,-9.481 z"
   id="path24"
   inkscape:connector-curvature="0" />
		<path
   style="fill:#333333"
   d="m 345.913,111.911 c 0,-3.72 2.664,-6.36 6.265,-6.36 3.601,0 6.265,2.641 6.265,6.36 0,3.721 -2.664,6.36 -6.265,6.36 -3.601,0 -6.265,-2.639 -6.265,-6.36 z m 11.305,0 c 0,-3.145 -2.16,-5.28 -5.04,-5.28 -2.88,0 -5.04,2.136 -5.04,5.28 0,3.144 2.16,5.28 5.04,5.28 2.88,0 5.04,-2.135 5.04,-5.28 z"
   id="path26"
   inkscape:connector-curvature="0" />
		<path
   style="fill:#333333"
   d="m 374.858,111.911 c 0,3.769 -2.664,6.36 -6.192,6.36 -2.208,0 -4.081,-1.08 -5.089,-2.952 v 7.513 h -1.2 v -17.186 h 1.152 v 2.952 c 0.984,-1.92 2.88,-3.048 5.137,-3.048 3.528,0.001 6.192,2.617 6.192,6.361 z m -1.2,0 c 0,-3.145 -2.185,-5.28 -5.064,-5.28 -2.879,0 -5.04,2.136 -5.04,5.28 0,3.144 2.16,5.28 5.04,5.28 2.88,0 5.064,-2.135 5.064,-5.28 z"
   id="path28"
   inkscape:connector-curvature="0" />
		<path
   style="fill:#333333"
   d="m 389.449,112.2 h -10.776 c 0.12,2.977 2.304,4.992 5.305,4.992 1.584,0 3.048,-0.576 4.008,-1.752 l 0.696,0.792 c -1.104,1.345 -2.832,2.04 -4.729,2.04 -3.792,0 -6.456,-2.64 -6.456,-6.36 0,-3.72 2.567,-6.36 6,-6.36 3.433,0 5.977,2.592 5.977,6.312 0,0.095 -0.025,0.215 -0.025,0.336 z m -10.753,-0.936 h 9.602 c -0.168,-2.713 -2.137,-4.657 -4.801,-4.657 -2.664,0 -4.608,1.921 -4.801,4.657 z"
   id="path30"
   inkscape:connector-curvature="0" />
		<path
   style="fill:#333333"
   d="m 398.28,111.911 c 0,-3.744 2.664,-6.36 6.337,-6.36 1.992,0 3.72,0.768 4.752,2.304 l -0.888,0.648 c -0.912,-1.272 -2.305,-1.872 -3.864,-1.872 -2.952,0 -5.112,2.112 -5.112,5.28 0,3.168 2.16,5.28 5.112,5.28 1.56,0 2.952,-0.6 3.864,-1.872 l 0.888,0.648 c -1.032,1.512 -2.76,2.304 -4.752,2.304 -3.673,0.001 -6.337,-2.639 -6.337,-6.36 z"
   id="path32"
   inkscape:connector-curvature="0" />
		<path
   style="fill:#333333"
   d="m 421.009,106.727 h -4.896 v 11.449 h -1.2 v -11.449 h -4.896 v -1.08 h 10.992 z"
   id="path34"
   inkscape:connector-curvature="0" />
		<path
   style="fill:#333333"
   d="m 423.576,105.647 h 1.2 v 10.681 l 8.929,-10.681 h 1.056 v 12.529 h -1.2 v -10.681 l -8.929,10.681 h -1.056 z"
   id="path36"
   inkscape:connector-curvature="0" />
		<path
   style="fill:#333333"
   d="m 447.793,118.176 -4.297,-5.593 -4.296,5.593 h -1.368 l 4.968,-6.457 -4.704,-6.072 h 1.368 l 4.032,5.209 4.032,-5.209 h 1.345 l -4.705,6.072 5.041,6.457 z"
   id="path38"
   inkscape:connector-curvature="0" />
		<path
   style="fill:#333333"
   d="m 450.527,111.911 c 0,-3.72 2.664,-6.36 6.265,-6.36 3.6,0 6.265,2.641 6.265,6.36 0,3.721 -2.665,6.36 -6.265,6.36 -3.601,0.001 -6.265,-2.639 -6.265,-6.36 z m 11.305,0 c 0,-3.145 -2.16,-5.28 -5.04,-5.28 -2.881,0 -5.041,2.136 -5.041,5.28 0,3.144 2.16,5.28 5.041,5.28 2.88,10e-4 5.04,-2.135 5.04,-5.28 z"
   id="path40"
   inkscape:connector-curvature="0" />
		<path
   style="fill:#333333"
   d="m 477.145,114.816 c 0,2.16 -1.536,3.36 -4.753,3.36 h -5.425 v -12.529 h 5.281 c 2.76,0 4.464,1.104 4.464,3.192 0,1.488 -0.888,2.473 -2.328,2.88 1.896,0.337 2.761,1.393 2.761,3.097 z m -9.001,-3.456 h 4.032 c 2.136,0 3.336,-0.816 3.336,-2.376 0,-1.585 -1.2,-2.353 -3.336,-2.353 h -4.032 z m 7.8,3.408 c 0,-1.704 -1.032,-2.473 -3.385,-2.473 h -4.416 v 4.896 h 4.225 c 2.328,10e-4 3.576,-0.743 3.576,-2.423 z"
   id="path42"
   inkscape:connector-curvature="0" />
	</g></g><g
   id="g3918"
   transform="translate(0,-2.4414063e-6)"><g
     style="enable-background:new"
     id="g56">
		<path
   style="fill:#333333"
   d="m 183.319,17.208 c -7.384,0 -15.289,3.849 -15.289,12.48 0,9.048 7.488,13.937 14.769,18.409 7.696,4.992 16.433,9.984 16.641,20.904 0.208,14.041 -11.128,22.777 -26.209,22.777 -9.36,0 -18.305,-2.601 -20.801,-4.473 l 2.08,-14.248 h 4.992 l 0.624,10.607 c 2.808,1.977 8.32,3.225 13.312,3.225 8.112,0 17.369,-4.264 17.785,-14.041 0.312,-8.736 -6.448,-13.312 -13.417,-17.576 -7.904,-4.992 -17.681,-11.024 -17.889,-22.465 -0.208,-12.272 11.024,-20.488 24.129,-20.488 9.776,0 15.913,2.496 18.617,4.367 L 200.375,30 h -4.576 l -0.52,-9.88 c -2.184,-1.559 -6.448,-2.912 -11.96,-2.912 z"
   id="path46"
   inkscape:connector-curvature="0" />
		<path
   style="fill:#333333"
   d="m 221.485,80.859 c 0,3.64 1.144,4.888 4.992,4.888 3.12,0 8.32,-2.808 10.296,-4.367 l 0.832,3.224 c -2.288,2.704 -9.464,7.072 -15.497,7.072 -5.616,0 -8.944,-2.601 -8.944,-8.528 0,-0.729 -0.104,-1.872 0.52,-6.553 l 4.888,-37.961 h -6.344 l 0.936,-3.641 6.344,-1.976 c 1.872,-2.392 4.472,-9.984 5.824,-14.249 h 4.056 l -1.872,14.145 h 14.353 l -0.832,5.721 h -14.145 l -4.68,34.426 c -0.415,3.534 -0.727,6.135 -0.727,7.799 z"
   id="path48"
   inkscape:connector-curvature="0" />
		<path
   style="fill:#333333"
   d="m 260.797,86.059 c 1.456,0 3.017,-0.936 5.408,-3.432 l 1.353,2.287 c -0.937,1.457 -5.305,6.761 -11.024,6.761 -3.536,0 -6.137,-1.664 -5.824,-6.136 0.624,-6.553 4.472,-30.682 6.552,-46.074 l -6.76,-2.184 0.624,-3.328 13.208,-2.185 2.08,1.04 -7.072,49.609 c -0.417,2.497 0.415,3.642 1.455,3.642 z m -1.976,-71.555 c 0.104,-3.641 3.224,-6.448 6.032,-6.448 3.016,0 4.784,2.08 4.784,4.888 0,3.744 -2.809,6.761 -6.137,6.761 -2.599,-10e-4 -4.783,-2.185 -4.679,-5.201 z"
   id="path50"
   inkscape:connector-curvature="0" />
		<path
   style="fill:#333333"
   d="m 317.166,31.561 c 7.176,0 11.648,3.744 11.648,15.08 0,4.889 -1.664,12.689 -2.704,18.305 -0.937,5.201 -2.393,12.377 -2.809,17.577 -0.104,2.392 0.521,3.64 1.561,3.64 1.56,0 2.912,-1.039 5.408,-3.119 l 1.248,2.287 c -0.729,1.353 -5.2,6.345 -11.024,6.345 -3.744,0 -5.929,-1.769 -5.721,-6.136 0.208,-4.576 1.872,-12.377 2.809,-18.098 1.144,-5.824 2.808,-13.936 2.808,-20.28 0,-6.864 -2.184,-8.944 -6.76,-8.944 -6.345,0 -14.977,6.864 -20.073,14.769 l -5.096,37.649 h -7.904 l 10.088,-76.859 -5.824,-1.664 0.624,-3.535 11.961,-1.769 2.08,1.248 -5.097,38.273 c 5.512,-7.8 14.041,-14.769 22.777,-14.769 z"
   id="path52"
   inkscape:connector-curvature="0" />
		<path
   style="fill:#333333"
   d="m 356.164,86.059 c 1.456,0 3.017,-0.936 5.408,-3.432 l 1.353,2.287 c -0.937,1.457 -5.305,6.761 -11.024,6.761 -3.536,0 -6.137,-1.664 -5.824,-6.136 0.624,-6.553 4.472,-30.682 6.552,-46.074 l -6.76,-2.184 0.624,-3.328 13.208,-2.185 2.08,1.04 -7.072,49.609 c -0.417,2.497 0.415,3.642 1.455,3.642 z m -1.976,-71.555 c 0.104,-3.641 3.224,-6.448 6.032,-6.448 3.016,0 4.784,2.08 4.784,4.888 0,3.744 -2.809,6.761 -6.137,6.761 -2.598,-10e-4 -4.783,-2.185 -4.679,-5.201 z"
   id="path54"
   inkscape:connector-curvature="0" />
	</g><g
     style="enable-background:new"
     id="g60">
		<path
   style="fill:#33a8b9"
   d="m 378.836,79.506 c 3.744,0 5.2,2.393 4.784,5.617 -0.624,4.056 -3.64,6.447 -6.76,6.447 -2.912,0 -4.889,-1.976 -4.473,-5.615 0.521,-3.744 3.329,-6.449 6.449,-6.449 z"
   id="path58"
   inkscape:connector-curvature="0" />
	</g><g
     style="enable-background:new"
     id="g66">
		<path
   style="fill:#333333"
   d="m 411.595,86.059 c 1.456,0 3.016,-0.936 5.408,-3.432 l 1.352,2.287 c -0.936,1.457 -5.304,6.761 -11.024,6.761 -3.536,0 -6.136,-1.664 -5.824,-6.136 0.624,-6.553 4.473,-30.682 6.553,-46.074 l -6.761,-2.184 0.624,-3.328 13.209,-2.185 2.08,1.04 -7.072,49.609 c -0.417,2.497 0.415,3.642 1.455,3.642 z m -1.977,-71.555 c 0.104,-3.641 3.225,-6.448 6.032,-6.448 3.017,0 4.784,2.08 4.784,4.888 0,3.744 -2.808,6.761 -6.136,6.761 -2.6,-10e-4 -4.783,-2.185 -4.68,-5.201 z"
   id="path62"
   inkscape:connector-curvature="0" />
		<path
   style="fill:#333333"
   d="m 478.987,54.961 c 0.312,18.305 -11.544,36.714 -28.913,36.714 -12.896,0 -20.072,-8.528 -20.385,-23.297 -0.104,-18.616 11.753,-36.817 29.121,-36.817 12.897,0 19.969,8.633 20.177,23.4 z m -40.665,13.313 c 0.104,11.753 4.784,18.305 13.312,18.305 12.584,0 19.032,-17.784 18.721,-31.513 -0.104,-11.648 -4.368,-18.409 -13.001,-18.409 -12.896,0 -19.24,17.785 -19.032,31.617 z"
   id="path64"
   inkscape:connector-curvature="0" />
	</g></g>

<g
   id="g3934"
   transform="translate(0,-2.4414063e-6)"><g
     id="g90">
	<path
   inkscape:connector-curvature="0"
   id="path70"
   d="M 75.754,114.696"
   style="fill:none;stroke:#33a8b9;stroke-width:3;stroke-linecap:round;stroke-linejoin:round;stroke-miterlimit:10" />
	<path
   inkscape:connector-curvature="0"
   id="path72"
   d="m 75.754,114.696 c 0.47,0.01 0.942,0.015 1.415,0.015 31.755,0 58.246,-22.615 64.298,-52.66 0.207,-1.026 -0.575,-1.986 -1.619,-1.986 H 47.532 C 41.012,58.39 36.504,55.139 33.47,51.353 30.441,47.567 28.28,45.315 28.28,39.069 c 0,-0.006 0,0.02 -0.006,0.014 L 11.567,39.069 c 0,3.812 0,6.636 0,9.881 0,30.465 20.668,56.092 48.713,63.561"
   style="fill:none;stroke:#33a8b9;stroke-width:3;stroke-linecap:round;stroke-linejoin:round;stroke-miterlimit:10" />
	<path
   inkscape:connector-curvature="0"
   id="path74"
   d="m 20.283,17.634 c 0,0 -1.367,-13.02 -17.06,-13.912 C 2.285,3.669 1.5,4.434 1.5,5.375 v 22.362 c 0,0 1.131,11.331 14.293,11.331"
   style="fill:none;stroke:#33a8b9;stroke-width:3;stroke-linecap:round;stroke-linejoin:round;stroke-miterlimit:10" />
	<path
   inkscape:connector-curvature="0"
   id="path76"
   d="m 20.283,17.634 c 0,0 1.367,-13.02 17.06,-13.912 0.938,-0.053 1.723,0.711 1.723,1.652 v 22.281 c 0,0.061 -0.004,0.118 -0.012,0.178 -0.141,1.061 -1.707,10.46 -12.878,11.189"
   style="fill:none;stroke:#33a8b9;stroke-width:3;stroke-linecap:round;stroke-linejoin:round;stroke-miterlimit:10" />
	<path
   inkscape:connector-curvature="0"
   id="path78"
   d="m 79.644,86.147 v 16.736 c 0,3.906 -1.168,7.759 -3.513,10.879 -2.502,3.328 -6.729,6.508 -13.815,6.956 -0.94,0.059 -1.729,-0.708 -1.729,-1.652 V 98.637 c 0,0 -1.649,-12.307 12.278,-12.307"
   style="fill:none;stroke:#33a8b9;stroke-width:3;stroke-linecap:round;stroke-linejoin:round;stroke-miterlimit:10" />
	<path
   inkscape:connector-curvature="0"
   id="path80"
   d="M 25.208,59.376"
   style="fill:none;stroke:#000000;stroke-width:3;stroke-linecap:round;stroke-linejoin:round;stroke-miterlimit:10" />
	
		<line
   id="line82"
   y2="60.063999"
   x2="35.276001"
   y1="60.063999"
   x1="47.532001"
   style="fill:none;stroke:#33a8b9;stroke-width:3;stroke-linecap:round;stroke-linejoin:round;stroke-miterlimit:10" />
	<path
   inkscape:connector-curvature="0"
   id="path84"
   d="m 61.54,92.403 c 0,0 -13.964,-0.654 -23.493,-6.256"
   style="fill:none;stroke:#33a8b9;stroke-width:2;stroke-linecap:round;stroke-linejoin:round;stroke-miterlimit:10" />
	<path
   inkscape:connector-curvature="0"
   id="path86"
   d="m 87.667,83.896 c 0,0 1.245,6.364 10.956,8.611 h 22.41 c 0,0 4.882,-0.482 6.625,-1.563"
   style="fill:none;stroke:#33a8b9;stroke-width:2;stroke-linecap:round;stroke-linejoin:round;stroke-miterlimit:10" />
	<path
   inkscape:connector-curvature="0"
   id="path88"
   d="m 115.267,80.905 c 0,0 -4.306,-4.316 -7.605,0"
   style="fill:none;stroke:#33a8b9;stroke-width:2;stroke-linecap:round;stroke-linejoin:round;stroke-miterlimit:10" />
</g><g
     transform="translate(-16.426637,55.193501)"
     id="g3877"
     style="enable-background:new">
		
		
		
		
		
		
		
		
		
		
		
		
		
		
		
		
		
		
		
		
		
	<text
   id="text3881"
   y="-4.3448353"
   x="91.989166"
   style="font-style:normal;font-weight:normal;font-size:40px;line-height:1.25;font-family:sans-serif;letter-spacing:0px;word-spacing:0px;fill:#33a8b9;fill-opacity:1;stroke:none"
   xml:space="preserve"><tspan
     style="font-style:normal;font-variant:normal;font-weight:bold;font-stretch:normal;font-size:26.66666603px;font-family:sans-serif;-inkscape-font-specification:'sans-serif Bold';fill:#33a8b9;fill-opacity:1"
     y="-4.3448353"
     x="91.989166"
     id="tspan3879"
     sodipodi:role="line">beta</tspan></text>
</g></g></svg>