<svg id="_2" data-name="2" xmlns="http://www.w3.org/2000/svg" viewBox="0 0 358 223.35"><defs><style>.cls-1{font-size:27.59px;fill:#909090;font-family:Montserrat-SemiBold, Montserrat;font-weight:700;}.cls-2{letter-spacing:0em;}.cls-3{letter-spacing:-0.02em;}.cls-4{letter-spacing:-0.02em;}.cls-5{font-size:85px;fill:#b5b5b5;font-family:Merriweather-LightItalic, Merriweather;font-style:italic;}.cls-6,.cls-7{fill:none;stroke:#33a8b9;stroke-linecap:round;stroke-linejoin:round;}.cls-6{stroke-width:5px;}.cls-7{stroke-width:4px;}</style></defs><title>Серый логотип</title><text class="cls-1" transform="translate(270.26 122.74)"><tspan class="cls-2">с</tspan><tspan x="15.89" y="0">тань</tspan><tspan x="-8.28" y="28.38">ки</tspan><tspan class="cls-3" x="28.15" y="28.38">т</tspan><tspan x="41.69" y="28.38">ом</tspan><tspan x="-19.65" y="56.77">в море</tspan><tspan class="cls-2" x="-17.66" y="85.15">с</tspan><tspan x="-1.77" y="85.15">ти</tspan><tspan class="cls-4" x="31.79" y="85.15">х</tspan><tspan x="46.85" y="85.15">ов</tspan></text><text class="cls-5" transform="translate(81.34 91.13)">Stihi.io</text><path class="cls-6" d="M142.34,206.91l2.57,0a119.36,119.36,0,0,0,117-95.57,3,3,0,0,0-2.95-3.6H91c-11.86-3-20.06-8.94-25.58-15.81S56,81,56,69.66c0,0,0,0,0,0l-30.39,0V87.59a119.39,119.39,0,0,0,88.61,115.35"/><path class="cls-6" d="M41.44,30.76S39,7.13,10.4,5.52a3,3,0,0,0-3.13,3V49.1s2.06,20.56,26,20.56"/><path class="cls-6" d="M41.44,30.76s2.49-23.63,31-25.25a3,3,0,0,1,3.13,3V48.95a2.4,2.4,0,0,1,0,.32c-.26,1.93-3.11,19-23.43,20.31"/><path class="cls-6" d="M149.42,155.1v30.37A32.75,32.75,0,0,1,143,205.21c-4.55,6-12.24,11.81-25.13,12.62a3,3,0,0,1-3.15-3V177.76s-3-22.33,22.33-22.33"/><line class="cls-6" x1="91" y1="107.76" x2="68.71" y2="107.76"/><path class="cls-7" d="M116.49,166.45s-25.4-1.19-42.73-11.35"/><path class="cls-7" d="M164,151s2.26,11.55,19.93,15.63H224.7s8.88-.87,12.05-2.84"/><path class="cls-7" d="M214.22,145.58s-7.83-7.83-13.83,0"/></svg>