<?xml version="1.0" encoding="utf-8"?>
<!-- Generator: Adobe Illustrator 21.1.0, SVG Export Plug-In . SVG Version: 6.00 Build 0)  -->
<svg version="1.1" id="_2" xmlns="http://www.w3.org/2000/svg" xmlns:xlink="http://www.w3.org/1999/xlink" x="0px" y="0px"
	 viewBox="0 0 358 223.4" style="enable-background:new 0 0 358 223.4;" xml:space="preserve">
<style type="text/css">
	.st0{enable-background:new    ;}
	.st1{fill:#909090;}
	.st2{font-family:'Montserrat-Light';}
	.st3{font-size:27.59px;}
	.st4{fill:#B5B5B5;}
	.st5{fill:none;stroke:#33A8B9;stroke-width:5;stroke-linecap:round;stroke-linejoin:round;}
	.st6{fill:none;stroke:#33A8B9;stroke-width:4;stroke-linecap:round;stroke-linejoin:round;}
</style>
<title>Серый логотип</title>
<g class="st0">
	<path class="st1" d="M271.8,115.5c0-4.3,3.1-7.3,7.3-7.3c2.3,0,4.3,0.9,5.5,2.6l-1,0.7c-1-1.5-2.6-2.2-4.4-2.2
		c-3.4,0-5.9,2.4-5.9,6.1s2.5,6.1,5.9,6.1c1.8,0,3.4-0.7,4.4-2.2l1,0.7c-1.2,1.7-3.2,2.6-5.5,2.6
		C274.8,122.9,271.8,119.8,271.8,115.5z"/>
</g>
<g class="st0">
	<path class="st1" d="M298.8,109.6h-5.6v13.2h-1.4v-13.2h-5.6v-1.2h12.6V109.6z"/>
	<path class="st1" d="M312,113.6v9.1h-1.3v-2.6c-0.9,1.7-2.7,2.7-5.2,2.7c-3.2,0-5.2-1.7-5.2-4.1c0-2.2,1.4-4,5.4-4h4.9v-1.2
		c0-2.7-1.5-4.1-4.3-4.1c-2,0-3.8,0.7-5,1.8l-0.7-1c1.4-1.3,3.5-2,5.8-2C310,108.2,312,110,312,113.6z M310.6,118.5v-2.7h-4.9
		c-3,0-4,1.2-4,2.9c0,1.9,1.5,3,4,3C308.1,121.7,309.8,120.6,310.6,118.5z"/>
	<path class="st1" d="M317.6,108.3h1.4v6.6h9.8v-6.6h1.4v14.4h-1.4v-6.6H319v6.6h-1.4V108.3z"/>
	<path class="st1" d="M347.4,118.1c0,3.1-2,4.7-5.8,4.7l-5.4-0.1v-14.4h1.4v5.2l4.4,0.1C345.5,113.6,347.4,115.2,347.4,118.1z
		 M346,118.1c0-2.3-1.5-3.4-4.4-3.5l-4,0v7l4,0.1C344.4,121.7,346,120.5,346,118.1z"/>
</g>
<g class="st0">
	<path class="st1" d="M269.8,144.4h-3.5v6.7H265v-14.4h1.4v6.5h3.5l5.4-6.5h1.5l-5.8,7l6.3,7.4h-1.7L269.8,144.4z"/>
	<path class="st1" d="M280.6,136.7h1.4V149l10.3-12.3h1.2v14.4h-1.4v-12.3l-10.3,12.3h-1.2V136.7z"/>
</g>
<g class="st0">
	<path class="st1" d="M311,138h-5.6v13.2H304V138h-5.6v-1.2H311V138z"/>
</g>
<g class="st0">
	<path class="st1" d="M313.5,143.9c0-4.3,3.1-7.3,7.2-7.3c4.1,0,7.2,3,7.2,7.3s-3.1,7.3-7.2,7.3
		C316.5,151.2,313.5,148.2,313.5,143.9z M326.5,143.9c0-3.6-2.5-6.1-5.8-6.1s-5.8,2.5-5.8,6.1s2.5,6.1,5.8,6.1
		S326.5,147.5,326.5,143.9z"/>
	<path class="st1" d="M348,136.7v14.4h-1.3v-12.2l-6.3,10.3h-0.6l-6.2-10.3v12.2h-1.3v-14.4h1.4l6.5,10.9l6.5-10.9H348z"/>
</g>
<g class="st0">
	<path class="st1" d="M265.3,175.6c0,2.5-1.8,3.9-5.5,3.9h-6.2v-14.4h6.1c3.2,0,5.1,1.3,5.1,3.7c0,1.7-1,2.8-2.7,3.3
		C264.3,172.5,265.3,173.7,265.3,175.6z M254.9,171.7h4.6c2.5,0,3.8-0.9,3.8-2.7c0-1.8-1.4-2.7-3.8-2.7h-4.6V171.7z M263.9,175.6
		c0-2-1.2-2.8-3.9-2.8h-5.1v5.6h4.9C262.5,178.4,263.9,177.5,263.9,175.6z"/>
	<path class="st1" d="M293,165.1v14.4h-1.3v-12.2l-6.3,10.3h-0.6l-6.2-10.3v12.2h-1.3v-14.4h1.4l6.5,10.9l6.5-10.9H293z"/>
	<path class="st1" d="M297.5,172.3c0-4.3,3.1-7.3,7.2-7.3s7.2,3,7.2,7.3s-3.1,7.3-7.2,7.3S297.5,176.6,297.5,172.3z M310.5,172.3
		c0-3.6-2.5-6.1-5.8-6.1s-5.8,2.5-5.8,6.1s2.5,6.1,5.8,6.1S310.5,175.9,310.5,172.3z"/>
	<path class="st1" d="M330.7,172.3c0,4.3-3.1,7.3-7.1,7.3c-2.5,0-4.7-1.2-5.8-3.4v8.6h-1.4v-19.8h1.3v3.4c1.1-2.2,3.3-3.5,5.9-3.5
		C327.7,165,330.7,168,330.7,172.3z M329.4,172.3c0-3.6-2.5-6.1-5.8-6.1s-5.8,2.5-5.8,6.1s2.5,6.1,5.8,6.1S329.4,175.9,329.4,172.3z
		"/>
	<path class="st1" d="M347.5,172.6h-12.4c0.1,3.4,2.6,5.7,6.1,5.7c1.8,0,3.5-0.7,4.6-2l0.8,0.9c-1.3,1.5-3.3,2.3-5.4,2.3
		c-4.4,0-7.4-3-7.4-7.3s3-7.3,6.9-7.3c3.9,0,6.9,3,6.9,7.3C347.5,172.4,347.5,172.5,347.5,172.6z M335.1,171.6h11
		c-0.2-3.1-2.5-5.4-5.5-5.4C337.6,166.2,335.4,168.4,335.1,171.6z"/>
</g>
<text transform="matrix(1 0 0 1 252.6 207.89)" class="st1 st2 st3">с</text>
<g class="st0">
	<path class="st1" d="M281.1,194.7h-5.6v13.2h-1.4v-13.2h-5.6v-1.2h12.6V194.7z"/>
	<path class="st1" d="M284.1,193.5h1.4v12.3l10.3-12.3h1.2v14.4h-1.4v-12.3l-10.3,12.3h-1.2V193.5z"/>
</g>
<g class="st0">
	<path class="st1" d="M314.1,207.9l-4.9-6.4l-4.9,6.4h-1.6l5.7-7.4l-5.4-7h1.6l4.6,6l4.6-6h1.5l-5.4,7l5.8,7.4H314.1z"/>
</g>
<g class="st0">
	<path class="st1" d="M318.6,200.7c0-4.3,3.1-7.3,7.2-7.3c4.1,0,7.2,3,7.2,7.3s-3.1,7.3-7.2,7.3C321.7,208,318.6,205,318.6,200.7z
		 M331.6,200.7c0-3.6-2.5-6.1-5.8-6.1s-5.8,2.5-5.8,6.1s2.5,6.1,5.8,6.1S331.6,204.3,331.6,200.7z"/>
	<path class="st1" d="M349.2,204c0,2.5-1.8,3.9-5.5,3.9h-6.2v-14.4h6.1c3.2,0,5.1,1.3,5.1,3.7c0,1.7-1,2.8-2.7,3.3
		C348.2,200.9,349.2,202.1,349.2,204z M338.9,200.1h4.6c2.5,0,3.8-0.9,3.8-2.7c0-1.8-1.4-2.7-3.8-2.7h-4.6V200.1z M347.8,204
		c0-2-1.2-2.8-3.9-2.8h-5.1v5.6h4.9C346.4,206.8,347.8,205.9,347.8,204z"/>
</g>
<g class="st0">
	<path class="st4" d="M109.4,31.5c-6,0-11.6,3.1-11.6,9.3c0,7,5.4,10.8,12,14.9c6.5,4.2,13.3,8.8,13.4,17.5
		c0.1,11.1-8.7,18.9-22.4,18.9c-8.2,0-15.9-2.3-17.9-3.8l2-12.2h5.5l0.5,8.9c2.1,1.6,6,2.6,9.9,2.6c7.2,0,13.3-3.6,13.5-10.5
		c0.2-6.6-4.6-10.2-11-14.1c-6.7-4.3-14.1-9.5-14.2-18.6c-0.1-10.7,9.3-17.3,20.9-17.3c8.3,0,13.3,1.9,15.6,3.4l-2,11.4h-5l-0.8-8.2
		C116.2,32.5,113.4,31.5,109.4,31.5z"/>
	<path class="st4" d="M142.4,82.4c0,2.7,0.9,3.7,3.7,3.7c2.5,0,6.3-1.7,8-3.1l0.8,2.9c-2,2.3-7.8,6.1-14.1,6.1c-4.3,0-7.5-2-7.5-7.1
		c0-0.6,0-1.6,0.6-6.8l3.8-28.7h-5.1l0.8-3.5l5.3-1.8c1.8-2,4-7.9,5.4-11.6h4.8L147.3,44h10.9l-0.7,5.4h-10.9L143,76.2
		C142.5,79,142.4,81,142.4,82.4z"/>
	<path class="st4" d="M174.4,86.5c1.2,0,2.4-0.6,4.3-2.5l1.1,2.2c-0.8,1.2-4.6,5.7-10.1,5.7c-3.8,0-6.2-1.8-5.9-5.4
		c0.6-5.8,3.3-23,5.1-36.7l-5.3-2l0.6-3l12.6-2l2,0.9l-5.7,39.7C172.9,85.6,173.5,86.5,174.4,86.5z M170.7,28.8
		c0.2-3.5,2.9-6.2,6.1-6.2c3.1,0,4.8,2.2,4.8,4.8c-0.1,3.6-2.5,6.5-6.2,6.5C172.8,33.9,170.6,31.6,170.7,28.8z"/>
	<path class="st4" d="M220.2,42.8c6,0,10,3.1,10,12.4c0,3.5-1.4,10.3-2.2,14.9c-0.7,4.3-1.9,9.9-2,13.7c-0.1,2,0.5,2.8,1.3,2.8
		c1.3,0,2.3-0.7,4.2-2.4l1.1,2.3c-0.8,1.1-4.5,5.4-10.1,5.4c-4.5,0-6-2-6-5.6c0.2-3.4,1.4-9.4,2.2-13.9C219.6,67.7,221,61,221,56
		c-0.1-5.4-1.6-6.8-4.8-6.8c-4.6,0-10.8,5.4-14.5,11.6l-3.9,30.3h-8.8l8-62.4l-4.9-1.5l0.6-3.1l12.1-1.5l1.9,1.1l-4,30.6
		C206.7,48,213.3,42.8,220.2,42.8z"/>
	<path class="st4" d="M253.5,86.5c1.2,0,2.4-0.6,4.3-2.5l1.1,2.2c-0.8,1.2-4.6,5.7-10.1,5.7c-3.8,0-6.2-1.8-5.9-5.4
		c0.6-5.8,3.3-23,5.1-36.7l-5.3-2l0.6-3l12.6-2l2,0.9l-5.7,39.7C252,85.6,252.6,86.5,253.5,86.5z M249.8,28.8
		c0.2-3.5,2.9-6.2,6.1-6.2c3.1,0,4.8,2.2,4.8,4.8c-0.1,3.6-2.5,6.5-6.2,6.5C251.9,33.9,249.7,31.6,249.8,28.8z"/>
	<path class="st4" d="M271.9,80.2c3.5,0,5,2.5,4.8,5.4c-0.3,4.1-3.3,6.4-6.5,6.4c-2.6,0-4.7-2-4.4-5.4
		C266.1,82.8,268.9,80.2,271.9,80.2z"/>
	<path class="st4" d="M300.9,86.5c1.2,0,2.4-0.6,4.3-2.5l1.1,2.2c-0.8,1.2-4.6,5.7-10.1,5.7c-3.8,0-6.2-1.8-5.9-5.4
		c0.6-5.8,3.3-23,5.1-36.7l-5.3-2l0.6-3l12.6-2l2,0.9l-5.7,39.7C299.4,85.6,300,86.5,300.9,86.5z M297.2,28.8
		c0.2-3.5,2.9-6.2,6.1-6.2c3.1,0,4.8,2.2,4.8,4.8c-0.1,3.6-2.5,6.5-6.2,6.5C299.3,33.9,297.1,31.6,297.2,28.8z"/>
	<path class="st4" d="M356.5,61.9c0.3,15.6-9.7,30.2-24.7,30.2c-11.1,0-17.2-6.9-17.4-19c-0.3-15.8,9.7-30.2,24.7-30.2
		C350.1,42.8,356.2,49.7,356.5,61.9z M324,73c0.2,9.6,3.2,14.5,9.3,14.5c9.4,0,13.8-14.5,13.5-25.7c-0.2-9.6-3.1-14.4-8.9-14.4
		C328.3,47.5,323.8,61.8,324,73z"/>
</g>
<path class="st5" d="M142.3,206.9h2.6c56.8,0,105.7-39.9,117-95.6c0.3-1.6-0.7-3.2-2.3-3.5c-0.2,0-0.4-0.1-0.6-0.1H91
	c-11.9-3-20.1-8.9-25.6-15.8S56,81,56,69.7l0,0H25.6v17.9c0,54.1,36.4,101.4,88.6,115.4"/>
<path class="st5" d="M41.4,30.8c0,0-2.4-23.6-31-25.2C8.7,5.4,7.3,6.7,7.3,8.4c0,0,0,0.1,0,0.1v40.6c0,0,2.1,20.6,26,20.6"/>
<path class="st5" d="M41.4,30.8c0,0,2.5-23.6,31-25.2c1.7-0.1,3.1,1.2,3.1,2.9c0,0,0,0.1,0,0.1V49c0,0.1,0,0.2,0,0.3
	c-0.3,1.9-3.1,19-23.4,20.3"/>
<path class="st5" d="M149.4,155.1v30.4c0.1,7.1-2.2,14-6.4,19.7c-4.6,6-12.2,11.8-25.1,12.6c-1.7,0.1-3.1-1.2-3.1-2.8
	c0-0.1,0-0.1,0-0.2v-37.1c0,0-3-22.3,22.3-22.3"/>
<line class="st5" x1="91" y1="107.8" x2="68.7" y2="107.8"/>
<path class="st6" d="M116.5,166.4c0,0-25.4-1.2-42.7-11.4"/>
<path class="st6" d="M164,151c0,0,2.3,11.6,19.9,15.6h40.8c0,0,8.9-0.9,12.1-2.8"/>
<path class="st6" d="M214.2,145.6c0,0-7.8-7.8-13.8,0"/>
</svg>
