<svg id="Capa_1" data-name="Capa 1" xmlns="http://www.w3.org/2000/svg" viewBox="0 0 190.2 171.71"><defs><style>.cls-1{fill:#33a8b9;}</style></defs><title>Кит</title><path class="cls-1" d="M105.17,146.52h-.1c-6.5-.4-11.6-2.8-15.3-7.1l1.7-1.5c3.3,3.8,7.9,6,13.7,6.4a.68.68,0,0,0,.7-.7v-7.3h2.3v7.3a2.72,2.72,0,0,1-.9,2.1A3.68,3.68,0,0,1,105.17,146.52Z"/><path class="cls-1" d="M169.37,18.52c-17.1.9-18.6,15.1-18.6,15.1s-1.5-14.1-18.6-15a1.81,1.81,0,0,0-1.9,1.8v24.4c.1,1.2,1.9,11.3,14,12.1H142c0,6.8-2.4,9.3-5.6,13.3a27.87,27.87,0,0,1-15.3,9.5H20.67a1.77,1.77,0,0,0-1.8,2.1,70.05,70.05,0,0,0,14.4,30.5,1.06,1.06,0,0,1,1.3-.1c1.2.7,4.7,1.3,6.7,1.5h24.2c9.6-2.3,10.9-8.2,11-8.4a1.12,1.12,0,0,1,2.2.4c-.1.3-1.6,7.6-12.8,10.2H41.07a39.23,39.23,0,0,1-5.6-1,71.42,71.42,0,0,0,53.4,24h.6c-.1-.1-.2-.3-.3-.4a20.94,20.94,0,0,1-4-12.5V108h2.2v18.2a18.65,18.65,0,0,0,3.6,11.1,17.39,17.39,0,0,0,1.3,1.5l13.7-2v-15.4s.6-5-2.5-8.5c-2.1-2.4-5.4-3.5-9.8-3.5v-2.2c5.1,0,9,1.5,11.5,4.3,3.5,4,3.1,9.5,3,10.2v14.7a71.45,71.45,0,0,0,52.2-68.8V56.92h-3.2c13-.8,14.2-12.3,14.2-12.3V20.32A2,2,0,0,0,169.37,18.52Zm-113,84.7a.84.84,0,0,1-.7.2,1.09,1.09,0,0,1-.9-.4,3.57,3.57,0,0,0-2.7-1.6c-2-.1-3.9,1.7-3.9,1.7a1.13,1.13,0,0,1-1.6-1.6c.1-.1,2.6-2.6,5.7-2.4a5.77,5.77,0,0,1,4.3,2.5A1.13,1.13,0,0,1,56.37,103.22Zm59.2,10.5a44.4,44.4,0,0,0,11.5-9.4,1.13,1.13,0,1,1,1.7,1.5,43.88,43.88,0,0,1-12.1,9.9,1.09,1.09,0,0,1-.5.1,1.14,1.14,0,0,1-.6-2.1Zm.1,7.1a42.33,42.33,0,0,0,18.8-14.8,1.14,1.14,0,0,1,1.8,1.4,43.6,43.6,0,0,1-19.8,15.5c-.1,0-.3.1-.4.1a1.09,1.09,0,0,1-1-.7A1.29,1.29,0,0,1,115.67,120.82Zm28.1-13.2c-11.5,19.3-27.9,21.5-28.6,21.6h-.1a1.09,1.09,0,0,1-1.1-1,1.06,1.06,0,0,1,1-1.2c.2,0,16-2.2,26.9-20.5a1.13,1.13,0,0,1,1.5-.4A1.1,1.1,0,0,1,143.77,107.62Z"/></svg>