<svg id="Capa_1" data-name="Capa 1" xmlns="http://www.w3.org/2000/svg" viewBox="0 0 190.2 171.71"><defs><style>.cls-1{fill:#33a8b9;}</style></defs><title>Морской конек</title><path class="cls-1" d="M159,120.88c-4-9.6-15-14.6-24.6-17.2-7.8-2-23.4-2.8-26.9-17.8,0,0,7.3-1.5,10.3-1.9.9-.1,1.2-.6,1.5-1.6.7-4.1,2.7-18.1,12.8-31.1,1.2-1.1,0-3.1-1.7-2.8a47.59,47.59,0,0,0-18,4.4c-3.8,1.4-7.4,4.2-10.6,6.4a50,50,0,0,0-13,13.8A30,30,0,0,0,84.58,87a2.48,2.48,0,0,1,.1.9l.1.4-.1-.4a4.13,4.13,0,0,1-.1-.9,10.3,10.3,0,0,1-.1-3.5,24,24,0,0,1,2.3-11.4c-.1-.4.4-.5.3-.9a43.07,43.07,0,0,1,10.6-15.3c1.5-1.6,3.1-3.1,4.6-4.7-7.8-20.1-25.5-22.9-29-23.2-.4.1-.9.1-1.3.2-11.3,7.4-18.5.9-20.7-2.3a1.74,1.74,0,0,0-2.7-.1c-7,6.8-13.5,19.7-10.9,37.4,2.4,16.5-3.6,24-7.6,27.2-1.2,1.1-.9,2.8.4,3l8.9,3.6a2.16,2.16,0,0,0,2.5-1.2l4.9-18.4a17.36,17.36,0,0,0,4-.1c5.8-3,6-7.5,6-7.5-.1-.4.7-1,1.2-1.1s1,.7,1.1,1.2a12.56,12.56,0,0,1-3.1,6.2,34.15,34.15,0,0,0,6.3-2.7c-1.8,9.1-2.9,26.1,11.6,43.5,14,17,33.7,9.7,49.6,9.2a6.26,6.26,0,0,0,3-.9h0A5.28,5.28,0,0,1,129,124a13.8,13.8,0,0,1,11.9-.4,12.82,12.82,0,0,1,6.9,7.9c.1.9.2,1.3.3,2.2.1.4.6,1.2.7,1.7a7.42,7.42,0,0,1-14.7,2.1,7.65,7.65,0,0,1,6.3-8.4,6.32,6.32,0,0,1,4.1.7.53.53,0,0,0-.5-.4,10.85,10.85,0,0,0-3.9-2.5,10.61,10.61,0,0,0-6.6.1c-2.1.7-5,2.5-6,4.4a14.44,14.44,0,0,0,.7,16.7c3.8,4.8,9.7,5.7,15.2,4a30.87,30.87,0,0,0,9.2-4A23.71,23.71,0,0,0,159,120.88ZM42.28,46.18c.1.4-.4.5-.4.5h0c-.4.1-.5-.4-.5-.4a30.21,30.21,0,0,1,7.4-16.1,2.48,2.48,0,0,1,.9-.1,4.13,4.13,0,0,1,.1.9C45.48,34.58,43.18,40.28,42.28,46.18Zm12.3,11a4.2,4.2,0,0,1-6.4-1.3,4.51,4.51,0,0,1,.7-4.5,4,4,0,0,1,6.2,0A4.83,4.83,0,0,1,54.58,57.18Zm18.9-24.9a39.08,39.08,0,0,1,23.6,16.1c.1.4.1.4-.3.9l-.4.1s-.4.1-.5-.4a37,37,0,0,0-22.7-15.7c-.4.1-.5-.4-.6-.8C72.58,32.48,73.08,32.38,73.48,32.28Zm30.4,90.4h0c-16.4-.3-30.9-11.5-34.9-27.2-.1-.4-.1-.4.4-.5s.4-.1.5.4a34.89,34.89,0,0,0,33.9,26.1c.4-.1.5.4.5.4A1.91,1.91,0,0,1,103.88,122.68Zm-7.5-45.9c.1.4-.4.5-.8.6s-.4.1-.9-.3-.6-.8-.2-1.3a40.1,40.1,0,0,1,24.9-20.4c.4-.1,1.4.2,1.4.7s-.3.9-.7,1.4A39.09,39.09,0,0,0,96.38,76.78Zm9.2-.4c-.4.1-.4.1-.9-.3a1.38,1.38,0,0,1-.3-1.7,31,31,0,0,1,11.7-11,1.81,1.81,0,0,1,1.4.2c.5.4.2,1.3-.2,1.8a30.13,30.13,0,0,0-10.9,10.4C106,76.28,106,76.28,105.58,76.38Z"/></svg>