<svg xmlns="http://www.w3.org/2000/svg" id="Capa_1" data-name="Capa 1" viewBox="0 0 190.2 171.71">
  <defs>
    <style>
      .cls-1{fill:#33a8b9}
    </style>
  </defs>
  <path d="M57.5 57.06c-17.7 8.9-28 29-28 29s10.3 20.1 28 29a45.81 45.81 0 0 0 10.3-29 45.25 45.25 0 0 0-10.3-29zm-4.6 25.7a3.7 3.7 0 1 1 3.7-3.7c.5 1.8-1.4 3.7-3.7 3.7z" class="cls-1"/>
  <path d="M150.9 86a25.35 25.35 0 0 0 9.8-20.1v-3.3h-3.3c-11.7 0-21 8.4-23.4 19.6-4.7-5.6-15.9-14.5-29.4-21l9.8-14.5c-21-7-33.2 7-33.2 7a37.35 37.35 0 0 0-7.5-.5 59.5 59.5 0 0 0-8.9.9 55.09 55.09 0 0 1 10.3 31.8 53.48 53.48 0 0 1-10.3 31.8c2.8.9 5.6.9 8.9.9a38.35 38.35 0 0 0 7.5-.5s12.1 14 33.2 7l-9.8-14.5c13.5-6.5 24.8-14.9 29.4-21a23.66 23.66 0 0 0 23.4 19.6h3.3v-3.3a25.4 25.4 0 0 0-9.8-19.9zM80.4 67.76a2.51 2.51 0 0 0 3.3-2.3 2.51 2.51 0 0 0-2.3-3.3.5.5 0 0 1 0-1 4.2 4.2 0 0 1 3.3 4.7 4 4 0 0 1-3.7 3.3h-.9a.49.49 0 0 1-.5-.5c.4-.9.8-.9.8-.9zm1 42.1c-.5 0-.5 0-.9-.5 0-.5 0-.5.5-.9a2.8 2.8 0 1 0-2.3-5.1c-.5 0-.5 0-.9-.5 0-.5 0-.5.5-.9a3.88 3.88 0 0 1 5.1 1.9 5.21 5.21 0 0 1-2 6zm0-22a.49.49 0 0 1-.5-.5l.5-.5a2.8 2.8 0 0 0 0-5.6.49.49 0 0 1-.5-.5l.5-.5a4.23 4.23 0 0 1 4.2 4.2c-.5 1.54-2.4 3.4-4.2 3.4zm9.8 10.8a4.66 4.66 0 0 1-2.8 1.9c-.5 0-.5 0-.5-.5s0-.5.5-.5a2.85 2.85 0 0 0 1.9-.9 3.3 3.3 0 0 0 .5-2.3c-.5-1.4-1.9-2.8-3.3-2.3-.5 0-.5 0-.5-.5s0-.5.5-.5c.9 0 2.3 0 2.8.5a2.91 2.91 0 0 1 1.4 2.8c.4.4-.1 1.3-.5 2.3zm.4-10.8a.49.49 0 0 1-.5-.5l.5-.5a2.8 2.8 0 0 0 0-5.6.49.49 0 0 1-.5-.5l.5-.5a4.23 4.23 0 0 1 4.2 4.2c0 1.54-1.8 3.4-4.2 3.4zm4.7-15.4c-.5.9-.9 1.9-1.9 2.3-.5.5-.9.5-1.9.5h-1.4c-.5 0-.5-.5-.5-.9s.5-.5.9-.5c.9.5 1.4 0 2.3 0 .5-.5 1.4-.9 1.4-1.4a3.09 3.09 0 0 0-1.9-3.7c-.5 0-.5-.5-.5-.9s.5-.5.9-.5a4.25 4.25 0 0 1 2.6 5.1zm6.5 31.8h-.9v-.9a2.32 2.32 0 0 0 .9-1.9c0-1 0-1.4-.5-1.9a2.32 2.32 0 0 0-1.9-.9c-.9 0-1.4 0-1.9.5h-.9v-.9a6.14 6.14 0 0 1 2.8-.9 4.17 4.17 0 0 1 2.8 1.4 6.14 6.14 0 0 1 .9 2.8 3.5 3.5 0 0 1-1.3 2.7zm-.9-10.8a.49.49 0 0 1-.5-.5l.5-.5a2.8 2.8 0 0 0 0-5.6.49.49 0 0 1-.5-.5l.5-.5a4.23 4.23 0 0 1 4.2 4.2c0 1.6-1.9 3.4-4.2 3.4zm5.1-17.7a4.63 4.63 0 0 1-3.7 2.8 1.64 1.64 0 0 1-1.4-.5c-.5 0-.5-.5-.5-.9s.5-.5.9-.5a2.94 2.94 0 1 0 1.8-5.6c-.5 0-.5-.5-.5-.9s.5-.5.9-.5c2.5 1.9 3.5 4.2 2.5 6.1zm7 20.5c-.5.9-1.4 1.9-2.3 1.9-.5 0-.5 0-.5-.5s0-.5.5-.9c.9-.5 1.4-.9 1.4-1.4a1.93 1.93 0 0 0 0-2.3c-.5-.9-.9-1.4-1.4-1.4a1.93 1.93 0 0 0-2.3 0c-.5 0-.5 0-.9-.5 0-.5 0-.5.5-.9a3.78 3.78 0 0 1 3.3 0 2.44 2.44 0 0 1 1.9 2.3 5.65 5.65 0 0 1-.2 3.7zm-1.4-9.8a.49.49 0 0 1-.5-.5l.5-.5a2.8 2.8 0 0 0 0-5.6.49.49 0 0 1-.5-.5l.5-.5a4.23 4.23 0 0 1 4.2 4.2c0 1.5-1.8 3.4-4.2 3.4z" class="cls-1"/>
</svg>