<svg id="Capa_1" data-name="Capa 1" xmlns="http://www.w3.org/2000/svg" viewBox="0 0 190.2 171.71"><defs><style>.cls-1{fill:#33a8b9;stroke:#33a8b9;}.cls-1,.cls-2{stroke-miterlimit:10;}.cls-2{fill:none;stroke:#fff;stroke-linecap:round;}.cls-3{fill:#fff;}</style></defs><title>Касатка</title><path class="cls-1" d="M190,108.13l-8.5-8.4a7,7,0,0,0-7.6-.5h0c-18-35.4-72.8-49.8-80.7-50.4S82.85,43,83,39.43s1.7-5.4,1.9-6.5,1-2.4-.6-3.1c-8.6.6-13.3,12.8-14,15.5a8.66,8.66,0,0,1-4.1,5.9c-58.2,17.3-60.9,54.4-61,57.6a45.84,45.84,0,0,0,1,10.4c2.1,5,4.8,1.4,4.8,1.4,1.6-.1,4.2-1.1,7.1-2.4h0A227.76,227.76,0,0,0,38.45,107s.6.5,1.4,1.2c2.2,1.8,6.5,5.4,9.1,7.2,3.5,2.6,10.5,1.2,10.5,1.2s5.5-3.7,6-4.3a1,1,0,0,0,.1-1.2l-12.7-10.9c71.8-24.7,104.9-1.7,113.6,5.5a.52.52,0,0,0,.4.2,7,7,0,0,0,.2,8l.1.1,8.4,8.4a.85.85,0,0,0,1.3,0c5.6-6.3,1.2-11.7,1.2-11.7s5.4,4.4,11.7-1.2A.91.91,0,0,0,190,108.13Z"/><path class="cls-2" d="M17,108.23c.4-1.5,2.7-4.7,5.6-3.5"/><path class="cls-3" d="M24,104.33a28.33,28.33,0,0,1,.3-4.5c.2-1,3.8-8.4,11-10.1C34.65,93.33,33,100.63,24,104.33Z"/><path class="cls-3" d="M43.85,102.43c-.6,2.7-3.5,5.9-3.7,5.7a16.43,16.43,0,0,1-1.4-1.2,227.76,227.76,0,0,1-20.4,11.2c.3-.3,8.8-10.1,9.5-10.8s.2-1.5.4-1.8C28.25,105.23,36.05,98.93,43.85,102.43Z"/><path class="cls-3" d="M111.15,89s5.3-4,6-4.5,17.3-1.2,18.8-1.1c.9-.4-.1-1.8-2.4-2.9s-10.5-4.8-17-4.5-16.5,11.5-16.5,11.5a3.33,3.33,0,0,0,2.6,1.2C104.65,88.93,111.15,89,111.15,89Z"/></svg>