<svg id="Capa_1" data-name="Capa 1" xmlns="http://www.w3.org/2000/svg" viewBox="0 0 190.2 171.71"><defs><style>.cls-1{fill:#33a8b9;}</style></defs><title>Дельфин</title><path class="cls-1" d="M104.22,106.79a2,2,0,0,1-.9,1.3h-.1a14.86,14.86,0,0,1-12.5,1.7,14.38,14.38,0,0,1-7.4-5.7L77,94.89a16.24,16.24,0,0,0,1.8-.2l5.8,8.5a13.67,13.67,0,0,0,6.6,5.1,13.25,13.25,0,0,0,11.2-1.5c.1-.1.2-.2.2-.3a.37.37,0,0,0-.1-.3l-8.1-11.9h1.9l7.5,11A1.34,1.34,0,0,1,104.22,106.79Z"/><path class="cls-1" d="M179.72,117.29,168.52,104l-.1-.1c-.6-.6-6.3-5.4-13.4-.2l-.7.6c-28.3-39.5-43-39.5-65.5-47.5-3.8-1.8-2.3-3.7-1.8-5.6s11.6-7.4,11.6-7.4c-8.9-5.6-22-1-27.1,3.5a51,51,0,0,1-7.8,5.3c-46.4,1-42.6,32.9-37.3,34.9l-6.9,5.1a4.17,4.17,0,0,0-1.7,2.9c-.2,1.7.8,2.8,2.7,4.2.2-.2.4-.4.7-.3,17.7,1.2,22.4-6.9,22.5-7a.81.81,0,1,1,1.4.8c-.2.3-4.7,7.9-20.4,7.9-1.1,0-2.3,0-3.6-.1h-.2c-.8,3.1.7,4.4,2.3,4.9a6.09,6.09,0,0,0,4,0,208.89,208.89,0,0,1,49.7-11l-.8-1.4,1.3-.9,1.4,2.1c5.5-.4,10.8-.6,15.7-.5l-.7-1h0s-1.7-3.3-4.9-4.1c-2.2-.6-4.6.1-7.3,1.8l-.9-1.3c3-2.1,5.9-2.8,8.6-2.1a10.08,10.08,0,0,1,5.9,4.9l1.3,1.9c25.8.7,44,7.9,50.8,16.1a10.12,10.12,0,0,0-1.4,12.6l5.5,6.5,5.8,6.9a1.3,1.3,0,0,0,1.9.1,19.2,19.2,0,0,0,1.4-1.5c6.7-7.7,2-15.1,1.8-15.4.3.3,7.6,6.9,17.2-.3A1.43,1.43,0,0,0,179.72,117.29ZM49.22,83.39a.76.76,0,0,1-.5.2.71.71,0,0,1-.6-.3,3.09,3.09,0,0,0-1.9-1.2,4,4,0,0,0-2.8,1.3.78.78,0,0,1-1.1-1.1,5.74,5.74,0,0,1,4.1-1.7,4.4,4.4,0,0,1,3.1,1.8A1.07,1.07,0,0,1,49.22,83.39Zm45.2-19.3a.87.87,0,0,1-.8.6h-.2c-3.4-1.1-5.6-1.6-5.6-1.6a.82.82,0,0,1,.4-1.6s2.2.6,5.7,1.7A.63.63,0,0,1,94.42,64.09Zm39.1,21.1c-.2.1-.3.2-.5.2a.86.86,0,0,1-.6-.3c-7.6-8.5-22.7-15-34-18.9a.79.79,0,0,1,.5-1.5c11.5,4,26.9,10.6,34.7,19.4A.79.79,0,0,1,133.52,85.19Z"/></svg>